<svg xmlns="http://www.w3.org/2000/svg" viewBox="0 0 3840 2160" width="3840" height="2160">
  <defs>
    <linearGradient id="bg" x1="0" y1="0" x2="1" y2="1">
      <stop offset="0" stop-color="#00030A"/>
      <stop offset="0.5" stop-color="#010A1E"/>
      <stop offset="1" stop-color="#0A1E3D"/>
    </linearGradient>
    <radialGradient id="glow" cx="0.78" cy="0.5" r="0.55">
      <stop offset="0" stop-color="#0066FF" stop-opacity="0.22"/>
      <stop offset="0.5" stop-color="#00E5FF" stop-opacity="0.08"/>
      <stop offset="1" stop-color="#010A1E" stop-opacity="0"/>
    </radialGradient>
    <pattern id="hexGrid3" width="120" height="104" patternUnits="userSpaceOnUse">
      <path d="M60 0 L116 32 L116 72 L60 104 L4 72 L4 32 Z" fill="none" stroke="#0066FF" stroke-opacity="0.05" stroke-width="1"/>
    </pattern>
  </defs>
  <rect width="3840" height="2160" fill="url(#bg)"/>
  <rect width="3840" height="2160" fill="url(#hexGrid3)"/>
  <rect width="3840" height="2160" fill="url(#glow)"/>

  <g opacity="0.07">
    <path d="M0 240 H3840 M0 480 H3840 M0 720 H3840 M0 960 H3840 M0 1200 H3840 M0 1440 H3840 M0 1680 H3840 M0 1920 H3840" stroke="#00E5FF" stroke-width="1"/>
    <path d="M280 0 V2160 M560 0 V2160 M840 0 V2160 M1120 0 V2160 M1400 0 V2160 M1680 0 V2160 M1960 0 V2160 M2240 0 V2160 M2520 0 V2160 M2800 0 V2160 M3080 0 V2160 M3360 0 V2160" stroke="#0066FF" stroke-width="0.6"/>
  </g>

  <!-- Cadeado hexagon -->
  <g transform="translate(2360 320)">
    <polygon points="220,0 420,116 420,348 220,464 20,348 20,116" fill="#0066FF" fill-opacity="0.04" stroke="#0066FF" stroke-opacity="0.28" stroke-width="2.5"/>
    <polygon points="220,50 370,137 370,311 220,398 70,311 70,137" fill="none" stroke="#00E5FF" stroke-opacity="0.18" stroke-width="1.2"/>
    <circle cx="220" cy="232" r="118" fill="none" stroke="#00E5FF" stroke-opacity="0.30" stroke-width="2.2"/>
    <!-- cadeado -->
    <path d="M168 248 L188 168 C188 136, 202 112, 220 112 C238 112, 252 136, 252 168 L272 248" fill="none" stroke="#00E5FF" stroke-width="4.5" stroke-linecap="round"/>
    <rect x="158" y="246" width="124" height="86" rx="16" fill="#0A1E3D" fill-opacity="0.9" stroke="#00E5FF" stroke-opacity="0.55" stroke-width="2"/>
    <circle cx="220" cy="284" r="16" fill="#00E5FF"/>
    <rect x="214" y="284" width="12" height="22" rx="6" fill="#00E5FF"/>
    <!-- olho pequeno dentro -->
    <circle cx="220" cy="200" r="3" fill="#0066FF" fill-opacity="0.6"/>
  </g>

  <g transform="translate(210 260)">
    <text x="0" y="0" fill="none" stroke="#0066FF" stroke-width="2" stroke-opacity="0.30" font-family="Space Grotesk, sans-serif" font-size="72" font-weight="900" letter-spacing="10">SESSION LOCKED</text>
    <text x="0" y="0" fill="#E6F0FF" font-family="Space Grotesk, sans-serif" font-size="72" font-weight="900" letter-spacing="10">SESSION LOCKED</text>
    <text x="0" y="48" fill="#00E5FF" font-family="Space Grotesk, sans-serif" font-size="20" font-weight="700" letter-spacing="10">BLUE LOCK FACILITY — SECURED</text>
    <rect x="0" y="78" width="520" height="3" rx="1.5" fill="#0066FF" fill-opacity="0.85"/>
    <rect x="0" y="78" width="300" height="3" rx="1.5" fill="#00E5FF"/>
    <text x="0" y="118" fill="#7AA0C8" font-family="JetBrains Mono, monospace" font-size="12" letter-spacing="4">EGO CONTAINMENT ACTIVE — AWAITING DEVOUR</text>
  </g>
</svg>
